<?xml version="1.0" encoding="utf-8"?>
<!-- Generator: Adobe Illustrator 17.0.0, SVG Export Plug-In . SVG Version: 6.00 Build 0)  -->
<!DOCTYPE svg PUBLIC "-//W3C//DTD SVG 1.1//EN" "http://www.w3.org/Graphics/SVG/1.1/DTD/svg11.dtd">
<svg version="1.1" id="Layer_1" xmlns="http://www.w3.org/2000/svg" xmlns:xlink="http://www.w3.org/1999/xlink" x="0px" y="0px"
	 width="144px" height="144px" viewBox="0 0 144 144" enable-background="new 0 0 144 144" xml:space="preserve">
<g>
	<g>
		<path fill="#FFFFFF" d="M49.138,17.912c-4.322,0-7.83,3.51-7.83,7.828c0,4.324,3.509,7.83,7.83,7.83s7.827-3.507,7.827-7.83
			C56.964,21.421,53.459,17.912,49.138,17.912z"/>
		<path fill="#FFFFFF" d="M26.007,17.914c-4.322,0-7.828,3.509-7.828,7.828c0,4.323,3.506,7.83,7.828,7.829
			c4.322,0,7.829-3.506,7.829-7.829C33.836,21.422,30.329,17.914,26.007,17.914z"/>
		<path fill="#FFFFFF" d="M72.269,87.305c-4.324,0-7.83,3.506-7.83,7.809c0,4.341,3.506,7.849,7.83,7.847
			c4.318,0,7.827-3.506,7.827-7.849C80.095,90.811,76.587,87.305,72.269,87.305z"/>
		<path fill="#FFFFFF" d="M72.269,110.415c-4.324,0-7.83,3.507-7.83,7.809c0,4.343,3.506,7.849,7.83,7.849
			c4.318,0,7.827-3.507,7.827-7.85C80.095,113.921,76.587,110.415,72.269,110.415z"/>
		<path fill="#627CFF" d="M118.518,18.433l-46.25,0.001c-4.036,0-7.307,3.273-7.307,7.306L64.96,71.953
			c0,4.033,3.273,7.305,7.308,7.305c4.033,0,7.305-3.271,7.305-7.306V33.047l38.945-0.002c4.036,0,7.307-3.271,7.307-7.307
			C125.825,21.705,122.554,18.433,118.518,18.433z"/>
	</g>
</g>
</svg>
